<svg width="180" height="130" xmlns="http://www.w3.org/2000/svg" fill="none">

 <g>
  <title>Layer 1</title>
  <g id="svg_5">
   <path id="svg_1" fill="#312D2A" d="m78.82153,21.04926l11.19974,0l-5.91337,-9.98367l-10.86255,18.03733l-4.96032,0l13.22984,-21.63227a3.11274,3.25409 0 0 1 2.59302,-1.40273c1.03386,0 1.98831,0.50982 2.5554,1.37214l13.26747,21.67305l-4.94917,0l-2.33525,-4.03192l-11.35022,0l-2.47459,-4.03047l0,-0.00146zm51.38252,4.02173l0,-18.79477l-4.20373,0l0,20.64322c0,0.5608 0.22851,1.1114 0.62561,1.51634c0.3971,0.43699 0.95444,0.67587 1.53129,0.67587l19.13068,0l2.49549,-4.03192l-19.57933,0l0,-0.0102l0,0.00146zm-69.45146,-3.36479a7.3736,7.70843 0 0 0 7.37499,-7.72009c0,-4.26061 -3.2897,-7.72009 -7.37499,-7.72009l-18.36712,0l0,22.82524l4.19398,0l0,-18.78312l13.89447,0a3.52099,3.68088 0 0 1 3.52935,3.67797a3.54607,3.7071 0 0 1 -3.52935,3.71001l-11.8365,-0.0102l12.54292,11.41845l6.09172,0l-8.41722,-7.38798l1.89774,0l0,-0.0102zm-44.18726,7.39526l12.69201,0a10.89599,11.39077 0 0 0 10.90295,-11.40825c0,-6.30717 -4.86,-11.4199 -10.90295,-11.4199l-12.69201,0c-6.0332,0 -10.92246,5.11274 -10.92246,11.4199s4.89065,11.40825 10.92385,11.40825l-0.00139,0zm12.39384,-4.02027l-12.12492,0a7.06706,7.38798 0 0 1 -7.05731,-7.38798a7.05313,7.37341 0 0 1 7.05731,-7.38798l12.12492,0a7.05034,7.3705 0 0 1 7.06567,7.38798a7.05592,7.37632 0 0 1 -7.06567,7.38652l0,0.00146zm79.71765,4.02027l12.95954,0l2.45508,-4.02027l-15.11783,0a7.07124,7.39235 0 0 1 -7.07542,-7.38798a7.0587,7.37924 0 0 1 7.07682,-7.38798l12.30327,0l2.48573,-4.03047l-15.07603,0c-6.0332,0 -10.93361,5.11274 -10.93361,11.41845c-0.00975,6.30717 4.89065,11.40825 10.92246,11.40825zm51.3435,-4.02027a7.0587,7.37924 0 0 1 -6.79815,-5.37202l17.93936,0l2.47459,-4.02027l-20.41395,0a7.04756,7.36758 0 0 1 6.79815,-5.37347l12.31302,0l2.46483,-4.03047l-15.05652,0c-6.02345,0 -10.91271,5.11274 -10.91271,11.41845a10.90992,11.40534 0 0 0 10.91271,11.40825l12.95954,0l2.46483,-4.02027l-15.1457,0"/>
   <path id="svg_2" fill="#343233" d="m91.84605,39.15047l-1.88799,0l0,16.90408l1.88799,0l0,-16.90408z"/>
   <path id="svg_3" fill="#343233" d="m71.2036,59.13571l3.78573,0c0.19925,0 0.36784,0.17625 0.36784,0.38455l0,39.75117a0.37342,0.39037 0 0 1 -0.36784,0.38455l-3.78573,0a0.37342,0.39037 0 0 1 -0.36784,-0.38455l0,-39.75117c0,-0.2083 0.1686,-0.38455 0.36784,-0.38455zm26.07791,32.70695l0,1.00798c0,0.44718 -0.06967,1.04003 -0.22851,1.80767c-0.12819,0.72831 -0.49603,1.49741 -1.12304,2.22426c-0.59635,0.72831 -1.49088,1.39253 -2.7226,1.94313c-1.23311,0.51856 -2.88284,0.79968 -5.00909,0.79968c-2.12764,0 -3.78712,-0.28113 -5.00909,-0.80114c-1.23311,-0.51856 -2.08724,-1.17258 -2.724,-1.94167c-0.59635,-0.72831 -0.99346,-1.49595 -1.12304,-2.25485c-0.12819,-0.75744 -0.22851,-1.3197 -0.22851,-1.76688l0,-22.65918c0,-0.2083 0.16999,-0.38455 0.36784,-0.38455l3.78712,0c0.19925,0 0.36784,0.17479 0.36784,0.38455l0,21.19382c0,0.69772 0.09893,1.21628 0.19925,1.60228c0.09893,0.41514 0.29678,0.79823 0.5657,1.14199c0.29818,0.38455 0.72593,0.65548 1.33204,0.9031c0.5657,0.23889 1.3613,0.38455 2.35476,0.38455c1.02411,0 1.85873,-0.13401 2.45508,-0.38455c0.59635,-0.23889 1.06312,-0.51856 1.3613,-0.86232a2.22936,2.33059 0 0 0 0.62701,-1.1114c0.09893,-0.41514 0.22851,-0.72831 0.22851,-1.70425l0,-21.16469c0,-0.20684 0.1686,-0.38309 0.36784,-0.38309l3.78573,0c0.19925,0 0.36784,0.17479 0.36784,0.38455l0,21.64101zm12.93027,-21.98477l2.55401,0c0.22851,0 0.3985,0.23889 0.32883,0.44718l-0.86527,3.46967c-0.02926,0.17771 -0.19786,0.28113 -0.32744,0.28113l-1.78906,0c-0.9642,0 -1.72915,0.13547 -2.3255,0.41514c-0.56709,0.28113 -1.06312,0.5506 -1.3613,0.93515c-0.29818,0.38455 -0.49743,0.72831 -0.59635,1.1114c-0.10032,0.41659 -0.12958,0.7589 -0.12958,1.11286l0,21.64101a0.37342,0.39037 0 0 1 -0.36784,0.38455l-3.81638,0a0.37342,0.39037 0 0 1 -0.36784,-0.38455l0,-22.6184c0,-0.41514 0.06967,-1.00798 0.22851,-1.76542c0.12958,-0.7589 0.49743,-1.49741 1.12304,-2.25485c0.59635,-0.72831 1.49088,-1.39253 2.724,-1.94313c1.18156,-0.5608 2.87169,-0.83027 4.98819,-0.83027l0,-0.00146zm-52.18787,0c3.08209,0 5.37693,0.62343 6.83855,1.91254c1.43097,1.28765 2.1569,2.87682 2.1569,4.78937l0,16.29084c0,0.65548 -0.12958,1.39253 -0.36784,2.18202c-0.22851,0.80114 -0.66602,1.52799 -1.33204,2.18202c-0.66602,0.65548 -1.58981,1.21628 -2.75326,1.662c-1.16205,0.44718 -2.68359,0.65548 -4.54232,0.65548c-1.88799,0 -3.37887,-0.23889 -4.54092,-0.65548c-1.16345,-0.41514 -2.08724,-1.00652 -2.75326,-1.66055c-0.66602,-0.65548 -1.13279,-1.39399 -1.33204,-2.18347c-0.22851,-0.79968 -0.36784,-1.52654 -0.36784,-2.18202l0,-2.59715c0,-1.39253 0.36784,-2.66998 1.02411,-3.81343a5.52881,5.77987 0 0 1 2.92185,-2.4311c0.62561,-0.23889 1.33204,-0.44573 2.1569,-0.75744c0.79421,-0.31317 1.58981,-0.55206 2.35476,-0.86378c0.76495,-0.27967 1.39196,-0.51856 1.98831,-0.72685c0.5657,-0.23889 0.92379,-0.34231 1.06312,-0.41514c0.12958,-0.07283 0.32744,-0.17625 0.52669,-0.31172c0.22851,-0.13547 0.42776,-0.34231 0.66602,-0.5506c0.22851,-0.28113 0.3971,-0.5506 0.52669,-0.86232c0.1686,-0.34376 0.22851,-0.72831 0.22851,-1.17404l0,-1.03857c0,-0.38455 -0.06967,-0.72831 -0.22851,-1.14345c-0.12958,-0.41514 -0.3971,-0.72831 -0.72593,-1.07062c-0.32744,-0.34231 -0.82486,-0.59139 -1.39056,-0.80114c-0.56709,-0.20684 -1.29303,-0.31026 -2.18756,-0.31026c-1.75841,0 -2.92185,0.38455 -3.58787,1.14345c-0.52669,0.65402 -0.86388,1.45371 -0.92379,2.38886c0,0.2083 -0.1686,0.34376 -0.36784,0.34376l-3.71745,0a0.37342,0.39037 0 0 1 -0.36645,-0.38455l0,-0.9672c0,-0.93515 0.1686,-1.80621 0.49603,-2.59715c0.32883,-0.80114 0.86527,-1.52799 1.63022,-2.15143a7.63137,7.97791 0 0 1 2.82292,-1.42312c1.13279,-0.26947 2.49409,-0.47777 4.0839,-0.47777zm4.55207,14.62884c-0.06967,0.38455 -0.26752,0.62343 -0.52669,0.83173a3.50706,3.66631 0 0 1 -0.79421,0.41514c-0.52808,0.2083 -1.13419,0.41659 -1.73054,0.62343a30.13813,31.50669 0 0 1 -1.72915,0.62343c-0.62561,0.23889 -1.26237,0.44718 -1.78906,0.65548a7.14788,7.47246 0 0 0 -1.23172,0.75744c-0.32883,0.31172 -0.59635,0.65548 -0.86527,1.14345c-0.26752,0.48797 -0.3971,1.03857 -0.3971,1.73483c0,1.39253 0.32744,2.43256 0.9642,3.11717c0.62561,0.65548 1.82807,1.03857 3.54747,1.03857c1.7598,0 2.95251,-0.38455 3.61853,-1.06916c0.62561,-0.72831 0.9642,-1.73629 0.9642,-3.05599l-0.03065,-6.81553zm61.24185,-14.62884c3.08069,0 5.37693,0.62343 6.83855,1.91254c1.43097,1.28765 2.1569,2.87682 2.1569,4.78937l0,16.29084c0,0.65548 -0.12958,1.39253 -0.36784,2.18202c-0.22851,0.80114 -0.66602,1.52799 -1.33204,2.18202c-0.66602,0.65548 -1.58981,1.21628 -2.75326,1.662c-1.16345,0.44718 -2.68359,0.65548 -4.54232,0.65548c-1.88799,0 -3.38862,-0.23889 -4.54232,-0.65548c-1.16205,-0.41514 -2.08584,-1.00652 -2.75186,-1.66055c-0.66602,-0.65548 -1.12304,-1.39399 -1.33204,-2.18347c-0.22851,-0.79968 -0.36784,-1.52654 -0.36784,-2.18202l0,-2.59715c0,-1.39253 0.36784,-2.66998 1.02411,-3.81343a5.52881,5.77987 0 0 1 2.92185,-2.4311c0.62561,-0.23889 1.33204,-0.44573 2.1569,-0.75744c0.79421,-0.31317 1.58981,-0.55206 2.35476,-0.86378c0.76495,-0.27967 1.39196,-0.51856 1.98831,-0.72685c0.5657,-0.23889 0.92379,-0.34231 1.06312,-0.41514c0.12958,-0.07283 0.32744,-0.17625 0.52669,-0.31172c0.22851,-0.13547 0.42776,-0.34231 0.66602,-0.5506c0.22851,-0.28113 0.3971,-0.5506 0.52669,-0.86232c0.1686,-0.34376 0.22851,-0.72831 0.22851,-1.17404l0,-1.03857c0,-0.38455 -0.06967,-0.72831 -0.22851,-1.14345c-0.12958,-0.41514 -0.3971,-0.72831 -0.72593,-1.07062c-0.36784,-0.34231 -0.82486,-0.59139 -1.39056,-0.80114c-0.56709,-0.20684 -1.29303,-0.31026 -2.18756,-0.31026c-1.75841,0 -2.92185,0.38455 -3.58787,1.14345c-0.52669,0.65402 -0.86388,1.45371 -0.92379,2.38886c0,0.2083 -0.1686,0.34376 -0.36784,0.34376l-3.81638,0a0.37342,0.39037 0 0 1 -0.36784,-0.38455l0,-0.9672c0,-0.93515 0.1686,-1.80621 0.49743,-2.59715c0.32744,-0.80114 0.86388,-1.52799 1.63022,-2.15143a7.6244,7.97063 0 0 1 2.82153,-1.42312a19.96111,20.86754 0 0 1 4.18423,-0.47777zm4.51306,14.62884c-0.06967,0.38455 -0.26892,0.62343 -0.52669,0.83173a3.51542,3.67505 0 0 1 -0.7956,0.41514c-0.52669,0.2083 -1.12304,0.41659 -1.72915,0.62343a30.13813,31.50669 0 0 1 -1.72915,0.62343c-0.62701,0.23889 -1.26237,0.44718 -1.78906,0.65548a7.15902,7.48411 0 0 0 -1.23311,0.75744c-0.32744,0.31172 -0.59635,0.65548 -0.86388,1.14345c-0.26892,0.44718 -0.3985,1.03857 -0.3985,1.73483c0,1.39253 0.32883,2.43256 0.9642,3.11717c0.62701,0.65548 1.82947,1.03857 3.54886,1.03857c1.75841,0 2.95111,-0.38455 3.61713,-1.06916c0.62561,-0.72831 0.9642,-1.73629 0.9642,-3.05599l-0.02926,-6.81553zm-51.37415,21.16469c0,-0.18645 0.14909,-0.36416 0.34834,-0.36416l2.17641,0c0.17974,0 0.34834,0.17771 0.34834,0.36416l0,10.20362l4.35282,0c0.19925,0 0.34834,0.17479 0.34834,0.36416l0,2.07714c0,0.18645 -0.14909,0.36416 -0.34834,0.36416l-6.86782,0a0.35112,0.36707 0 0 1 -0.34694,-0.36416l0,-12.64346l-0.01115,0l0,-0.00146zm8.29878,12.50945l5.72527,-12.85176c0.05991,-0.11507 0.17835,-0.2083 0.30793,-0.2083l0.17835,0c0.12958,0 0.25916,0.09322 0.30932,0.2083l5.72388,12.85176c0.11007,0.24908 -0.03901,0.49962 -0.30793,0.49962l-2.02732,0c-0.32883,0 -0.47792,-0.11507 -0.63676,-0.47923l-0.65487,-1.50615l-4.97007,0l-0.65627,1.52799a0.67299,0.70355 0 0 1 -0.65487,0.45592l-2.00782,0c-0.29818,0 -0.43751,-0.24763 -0.32883,-0.49816zm7.50458,-4.08291l-1.39196,-3.14776l-0.01951,0l-1.37245,3.1463l2.78391,0l0,0.00146zm7.22451,-5.98525l-2.61392,0a0.35112,0.36707 0 0 1 -0.34694,-0.36416l0,-2.07714c0,-0.18645 0.14909,-0.36416 0.34694,-0.36416l8.11068,0c0.19925,0 0.34834,0.17771 0.34834,0.36416l0,2.0786c0,0.18645 -0.14909,0.36416 -0.34834,0.36416l-2.61392,0l0,10.20217c0,0.18645 -0.1686,0.36416 -0.34834,0.36416l-2.19592,0a0.36645,0.38309 0 0 1 -0.34834,-0.36416l0,-10.20362l0.00975,0zm5.36718,10.06816l5.72527,-12.85176c0.05991,-0.11507 0.17835,-0.2083 0.30793,-0.2083l0.17835,0c0.12958,0 0.25916,0.09322 0.30793,0.2083l5.72527,12.85176c0.10868,0.24908 -0.04041,0.49962 -0.30793,0.49962l-2.02732,0c-0.32883,0 -0.47792,-0.11507 -0.63676,-0.47923l-0.65627,-1.50615l-4.96868,0l-0.65627,1.52799a0.67299,0.70355 0 0 1 -0.65627,0.45592l-2.00642,0c-0.28842,0 -0.43751,-0.24763 -0.32883,-0.49816zm7.51433,-4.08291l-1.39196,-3.14776l-0.01951,0l-1.37245,3.1463l2.78391,0l0,0.00146zm7.49343,-8.67563a0.33858,0.35396 0 0 1 0.32744,-0.30152l0.28842,0c0.08917,0 0.25916,0.07283 0.30793,0.18645l4.24414,8.2503l0.04041,0l4.24275,-8.2503a0.40686,0.42533 0 0 1 0.30793,-0.18645l0.28842,0c0.14909,0 0.30793,0.13547 0.32883,0.30152l2.06634,12.84156c0.04041,0.24908 -0.12819,0.41514 -0.34694,0.41514l-2.1569,0c-0.1686,0 -0.32883,-0.1544 -0.34834,-0.30006l-0.82486,-5.90223l-0.03901,0l-3.07094,6.19209a0.43333,0.45301 0 0 1 -0.30932,0.2083l-0.32744,0a0.38596,0.40348 0 0 1 -0.30793,-0.2083l-3.09045,-6.19064l-0.04041,0l-0.80536,5.89931a0.35391,0.36998 0 0 1 -0.34694,0.30298l-2.1569,0c-0.21876,0 -0.38735,-0.17771 -0.34834,-0.41659l2.07748,-12.84156z"/>
   <path id="svg_4" fill="#343233" d="m99.49856,48.97598l-0.02981,-1.97347l-16.16779,0.26687l0.02981,1.97347l16.16779,-0.26687z"/>
  </g>
 </g>
</svg>